HIERARCHY
ROOT Hips
{
	OFFSET 0.000000 0.000000 0.000000
	CHANNELS 6 Xposition Yposition Zposition Xrotation Yrotation Zrotation
	JOINT LeftUpLeg_virtual
	{
		OFFSET 0.000000 0.000000 0.000000
		CHANNELS 3 Xrotation Yrotation Zrotation
		JOINT LeftUpLeg
		{
			OFFSET 13.026900 -6.336304 -1.092800
			CHANNELS 3 Xrotation Yrotation Zrotation
			JOINT LeftLeg
			{
				OFFSET 0.524474 -46.096886 9.782700
				CHANNELS 3 Xrotation Yrotation Zrotation
				JOINT LeftFoot
				{
					OFFSET -0.524474 -53.427422 -12.948200
					CHANNELS 3 Xrotation Yrotation Zrotation
					JOINT LeftToeBase
					{
						OFFSET 0.192200 -14.009700 16.364100
						CHANNELS 3 Xrotation Yrotation Zrotation
						JOINT LeftToe_End
						{
							OFFSET -1.784700 -0.561700 9.474800
							CHANNELS 3 Xrotation Yrotation Zrotation
							End Site
							{
								OFFSET 0 0 0
							}
						}
					}
				}
			}
		}
	}
	JOINT RightUpLeg_virtual
	{
		OFFSET 0.000000 0.000000 0.000000
		CHANNELS 3 Xrotation Yrotation Zrotation
		JOINT RightUpLeg
		{
			OFFSET -12.883000 -6.336304 -1.092800
			CHANNELS 3 Xrotation Yrotation Zrotation
			JOINT RightLeg
			{
				OFFSET -0.524587 -46.096825 9.782800
				CHANNELS 3 Xrotation Yrotation Zrotation
				JOINT RightFoot
				{
					OFFSET 0.524587 -53.427383 -12.948300
					CHANNELS 3 Xrotation Yrotation Zrotation
					JOINT RightToeBase
					{
						OFFSET -0.192200 -14.009700 16.364100
						CHANNELS 3 Xrotation Yrotation Zrotation
						JOINT RightToe_End
						{
							OFFSET 1.784700 -0.561700 9.474800
							CHANNELS 3 Xrotation Yrotation Zrotation
							End Site
							{
								OFFSET 0 0 0
							}
						}
					}
				}
			}
		}
	}
	JOINT Spine_virtual
	{
		OFFSET 0.000000 0.000000 0.000000
		CHANNELS 3 Xrotation Yrotation Zrotation
		JOINT Spine
		{
			OFFSET 0.072000 7.257294 -0.789700
			CHANNELS 3 Xrotation Yrotation Zrotation
			JOINT Spine1
			{
				OFFSET 0.000000 12.508769 -0.658067
				CHANNELS 3 Xrotation Yrotation Zrotation
				JOINT Spine1_split
				{
					OFFSET 0.000000 12.508769 -0.658067
					CHANNELS 3 Xrotation Yrotation Zrotation
					JOINT Spine2
					{
						OFFSET 0.000000 12.508769 -0.658067
						CHANNELS 3 Xrotation Yrotation Zrotation
						JOINT Neck_virtual
						{
							OFFSET 0.000000 0.000000 0.000000
							CHANNELS 3 Xrotation Yrotation Zrotation
							JOINT Neck
							{
								OFFSET 0.000000 14.033295 7.520400
								CHANNELS 3 Xrotation Yrotation Zrotation
								JOINT Head
								{
									OFFSET 0.000000 8.198502 5.703100
									CHANNELS 3 Xrotation Yrotation Zrotation
									JOINT HeadTop_End
									{
										OFFSET 0.000000 17.760803 13.332701
										CHANNELS 3 Xrotation Yrotation Zrotation
										End Site
										{
											OFFSET 0 0 0
										}
									}
								}
							}
						}
						JOINT LeftShoulder_virtual
						{
							OFFSET 0.000000 0.000000 0.000000
							CHANNELS 3 Xrotation Yrotation Zrotation
							JOINT LeftShoulder
							{
								OFFSET 6.292450 5.785301 -0.669000
								CHANNELS 3 Xrotation Yrotation Zrotation
								JOINT LeftShoulder_split
								{
									OFFSET 6.292450 5.785301 -0.669000
									CHANNELS 3 Xrotation Yrotation Zrotation
									JOINT LeftArm
									{
										OFFSET 13.907140 -6.093903 1.965100
										CHANNELS 3 Xrotation Yrotation Zrotation
										JOINT LeftForeArm
										{
											OFFSET 34.140198 0.000000 0.000000
											CHANNELS 3 Xrotation Yrotation Zrotation
											JOINT LeftHand
											{
												OFFSET 40.960209 0.000000 0.000000
												CHANNELS 3 Xrotation Yrotation Zrotation
												End Site
												{
													OFFSET 0 0 0
												}
											}
										}
									}
								}
							}
						}
						JOINT RightShoulder_virtual
						{
							OFFSET 0.000000 0.000000 0.000000
							CHANNELS 3 Xrotation Yrotation Zrotation
							JOINT RightShoulder
							{
								OFFSET -6.292450 5.785301 -0.669000
								CHANNELS 3 Xrotation Yrotation Zrotation
								JOINT RightShoulder_split
								{
									OFFSET -6.292450 5.785301 -0.669000
									CHANNELS 3 Xrotation Yrotation Zrotation
									JOINT RightArm
									{
										OFFSET -13.907140 -6.093903 1.965100
										CHANNELS 3 Xrotation Yrotation Zrotation
										JOINT RightForeArm
										{
											OFFSET -34.140198 0.000000 0.000000
											CHANNELS 3 Xrotation Yrotation Zrotation
											JOINT RightHand
											{
												OFFSET -40.960209 0.000000 0.000000
												CHANNELS 3 Xrotation Yrotation Zrotation
												End Site
												{
													OFFSET 0 0 0
												}
											}
										}
									}
								}
							}
						}
					}
				}
			}
		}
	}
}
MOTION
Frames: 4
Frame Time: 0.03333333
1.817862 110.032608 -3.703293 0.000000 0.000000 0.000000 2.133447 -10.143335 -1.632177 -35.326442 2.426617 7.585916 29.162876 0.415763 2.672680 4.173475 0.154834 -4.479159 -0.389914 -1.257103 -0.209096 0.000000 0.000000 0.000000 2.133447 -10.143335 -1.632177 -13.940769 -10.690183 -13.947667 31.512772 -10.561138 2.666758 -15.007891 -2.673764 13.185696 -1.185614 0.325712 0.665573 0.000000 0.000000 0.000000 2.133447 -10.143335 -1.632177 21.548116 5.812541 0.941032 2.951617 1.865108 -0.160994 0.000000 0.000000 0.000000 0.000000 0.000000 0.000000 2.950957 1.939448 -0.175154 -4.099836 15.090186 2.372694 6.098612 46.772907 -19.938082 0.000000 0.000000 0.000000 2.950957 1.939448 -0.175154 1.306147 -33.191294 4.056574 0.000000 0.000000 0.000000 -22.439082 -14.543430 -67.584783 0.000018 -44.463695 -8.793781 0.000000 0.000000 0.000000 2.950957 1.939448 -0.175154 9.474262 21.562347 -11.639588 0.000000 0.000000 0.000000 -44.239077 10.875464 78.236805 0.000074 50.076420 2.034985 0.000000 0.000000 0.000000 
2.041047 110.082870 -2.988758 0.000000 0.000000 0.000000 2.292211 -9.445261 -1.636265 -35.349941 2.412949 7.106846 29.437436 0.011046 2.723459 3.726001 0.158991 -4.175252 -0.395707 -1.291657 -0.208759 0.000000 0.000000 0.000000 2.292211 -9.445261 -1.636265 -13.218361 -10.820609 -14.069960 31.015612 -11.115562 2.669402 -15.092071 -2.821899 13.712914 -1.223655 0.270142 0.714838 0.000000 0.000000 0.000000 2.292211 -9.445261 -1.636265 21.439431 5.792544 0.499109 2.917136 1.985256 -0.390848 0.000000 0.000000 0.000000 0.000000 0.000000 0.000000 2.916577 2.058883 -0.406592 -4.390912 14.896784 2.706927 5.129817 46.544990 -18.898479 0.000000 0.000000 0.000000 2.916577 2.058883 -0.406592 1.216770 -33.714483 4.232018 0.000000 0.000000 0.000000 -21.704806 -14.643560 -67.511420 0.000000 -44.942515 -7.663739 0.000000 0.000000 0.000000 2.916577 2.058883 -0.406592 9.352110 20.644021 -11.270545 0.000000 0.000000 0.000000 -44.692148 11.251934 79.128507 0.000016 49.534222 1.683199 0.000000 0.000000 0.000000 
2.236885 110.096214 -2.292294 0.000000 0.000000 0.000000 2.451654 -8.837169 -1.604653 -35.397274 2.445195 6.655303 29.767542 -0.359060 2.785801 3.255271 0.164167 -3.904880 -0.412883 -1.385389 -0.206847 0.000000 0.000000 0.000000 2.451654 -8.837169 -1.604653 -12.570084 -10.841550 -14.197942 30.625619 -11.678603 2.673363 -15.209132 -2.969286 14.230290 -1.263112 0.206540 0.771719 0.000000 0.000000 0.000000 2.451654 -8.837169 -1.604653 21.331376 5.746309 0.059008 2.878252 2.069780 -0.624885 0.000000 0.000000 0.000000 0.000000 0.000000 0.000000 2.876967 2.143173 -0.641692 -4.672449 14.693777 3.114029 4.033502 46.222359 -17.716247 0.000000 0.000000 0.000000 2.876967 2.143173 -0.641692 1.177286 -34.220668 4.459816 0.000000 0.000000 0.000000 -20.925142 -14.883121 -67.421221 0.000032 -45.299973 -6.535482 0.000000 0.000000 0.000000 2.876967 2.143173 -0.641692 9.326589 20.046026 -11.021182 0.000000 0.000000 0.000000 -45.044298 11.395506 79.862246 0.000056 49.125357 1.440739 0.000000 0.000000 0.000000 
2.410435 110.078423 -1.621796 0.000000 0.000000 0.000000 2.610965 -8.321767 -1.565977 -35.466461 2.461927 6.238038 30.148110 -0.642428 2.873492 2.767512 0.167768 -3.690017 -0.420639 -1.430414 -0.206162 0.000000 0.000000 0.000000 2.610965 -8.321767 -1.565977 -11.993168 -10.787892 -14.294899 30.316041 -12.228366 2.651133 -15.343632 -3.116327 14.736188 -1.234821 0.174883 0.806957 0.000000 0.000000 0.000000 2.610965 -8.321767 -1.565977 21.213386 5.670019 -0.360291 2.849302 2.129481 -0.844700 0.000000 0.000000 0.000000 0.000000 0.000000 0.000000 2.847443 2.202041 -0.862805 -4.929263 14.453375 3.540126 2.841583 45.921018 -16.428780 0.000000 0.000000 0.000000 2.847443 2.202041 -0.862805 1.163066 -34.736436 4.700197 0.000000 0.000000 0.000000 -20.077616 -15.281490 -67.271974 0.000072 -45.545911 -5.419426 0.000000 0.000000 0.000000 2.847443 2.202041 -0.862805 9.325781 19.801681 -10.910317 0.000000 0.000000 0.000000 -45.200416 11.259153 80.387905 -0.001077 48.894251 1.360710 0.000000 0.000000 0.000000 
